<svg width="268" height="159" viewBox="0 0 268 159" fill="none" xmlns="http://www.w3.org/2000/svg">
<path fill-rule="evenodd" clip-rule="evenodd" d="M267.794 61.8342C267.462 58.3712 267.308 54.8953 266.805 51.4517C266.279 47.7984 265.331 44.3548 263.741 41.0111C262.068 37.4803 259.685 34.2979 257.273 31.2605C254.839 28.1908 252.172 25.3082 249.519 22.4289C246.571 19.2302 243.415 16.5476 239.539 14.5194C232.162 10.6501 223.262 8.77352 214.979 8.53169C206.795 8.28986 198.731 10.1439 190.683 11.3466C189.78 11.482 188.964 11.8915 188.487 12.5783C184.985 12.2978 181.432 12.5042 177.959 13.1619C178.943 12.0495 180.026 11.0145 181.145 10.0375C183.767 7.77073 190.364 -0.25802 188.91 0.0063803C184.779 0.741543 181.107 3.1534 177.889 5.74259C174.625 8.3737 171.62 11.769 169.811 15.5899C168.212 16.2541 166.664 17.0183 165.175 17.8792C166.951 15.3094 169.105 12.5783 171.553 11.1435C174.561 9.36359 162.837 11.8689 160.574 15.0837C158.368 18.2242 156.44 21.5808 154.734 25.0116C154.405 25.6694 154.363 26.3014 154.505 26.8624C153.045 28.5359 151.684 30.2867 150.439 32.073C149.968 32.7373 149.543 33.4273 149.127 34.1302C148.479 34.9008 147.618 35.4587 146.66 35.8972C145.345 36.239 144.061 36.6936 142.788 37.174C140.415 37.7867 137.98 38.1736 135.568 38.6186C134.501 38.8217 133.443 39.0506 132.389 39.2538C132.057 39.2602 131.725 39.3279 131.409 39.4279C130.113 39.66 128.807 39.8374 127.453 39.86C124.434 39.9148 121.468 39.3473 118.524 38.7572C117.483 38.5541 116.638 38.8991 116.064 39.502C115.416 39.7439 114.842 40.1985 114.526 40.766C113.758 42.1654 114.381 43.5938 115.58 44.4483C120.175 47.7339 126.692 48.7206 128.9 54.5439C129.374 55.8014 129.661 57.1234 129.806 58.4841C129.806 58.5808 129.806 58.6743 129.806 58.771C129.813 59.316 129.79 59.8609 129.758 60.3994C129.758 60.451 129.751 60.4864 129.751 60.5251C129.719 60.7669 129.677 61.0023 129.632 61.2474C129.494 61.9406 129.526 62.6371 129.703 63.2788C129.539 64.5201 129.29 65.7551 128.958 66.9417C128.704 67.2867 128.439 67.6381 128.178 67.9896C125.598 71.4784 123.635 74.993 122.342 79.1428C121.168 82.9154 120.549 86.8459 119.946 90.7377C119.401 94.2394 118.598 97.7508 118.46 101.301C118.453 101.462 118.453 101.63 118.453 101.785C118.237 102.168 118.115 102.639 118.128 103.197C118.527 116.217 127.414 128.038 137.1 135.983C142.562 140.458 148.859 143.915 155.624 145.965C159.464 147.129 163.453 147.703 167.464 147.835C167.483 147.858 167.509 147.887 167.538 147.91C173.242 152.953 179.849 156.777 187.326 158.379C194.607 159.924 211.567 155.648 211.174 154.291C210.748 152.801 209.272 152.121 207.834 152.44C201.517 153.807 194.978 154.394 188.6 153.104C183.934 152.163 179.639 150.17 175.757 147.503C176.054 147.474 176.354 147.439 176.647 147.407C177.108 147.349 177.56 147.297 178.011 147.226C179.465 147.026 180.697 146.062 180.649 144.456C180.616 143.112 179.352 141.606 177.892 141.809C171.378 142.715 164.846 142.744 158.449 141.122C152.3 139.574 146.344 136.427 141.44 132.555C138.27 130.056 135.107 127.07 132.354 123.717C135.059 124.784 138.058 125.136 141.024 125.068C141.108 125.394 141.224 125.703 141.369 126.016C144.797 133.242 152.471 137.018 160.087 137.936C162.905 138.281 165.758 138.34 168.593 138.111C168.851 138.285 169.144 138.41 169.466 138.449C173.716 139.026 178.027 139.317 182.209 140.319C186.324 141.312 198.85 145.169 196.655 142.709C202.774 143.418 208.785 146.097 214.389 148.251C215.769 148.787 217.333 147.552 217.655 146.249C218.032 144.685 199.434 136.24 190.899 137.266C190.538 137.314 190.19 137.411 189.877 137.556C188.223 136.656 186.485 135.921 184.628 135.36C183.718 135.089 182.793 134.87 181.858 134.673C182.129 134.557 182.393 134.432 182.654 134.299C184.647 133.322 180.5 126.332 178.527 127.312C178.327 127.399 178.143 127.493 177.953 127.58C177.801 127.644 177.486 127.796 177.411 127.815C176.667 128.121 175.909 128.376 175.148 128.618C173.642 129.089 172.107 129.443 170.56 129.721C170.463 129.737 170.392 129.75 170.343 129.763C170.276 129.772 170.208 129.779 170.102 129.792C169.728 129.85 169.35 129.888 168.97 129.93C168.08 130.027 167.193 130.085 166.303 130.127C165.536 130.156 164.765 130.156 163.995 130.14C163.611 130.133 163.227 130.111 162.844 130.085C162.74 130.075 161.841 130.001 161.767 130.017C160.229 129.827 158.697 129.511 157.207 129.089C156.853 128.992 156.504 128.882 156.153 128.753C156.085 128.734 155.656 128.566 155.511 128.512C154.834 128.228 154.186 127.905 153.548 127.547C153.238 127.373 152.938 127.183 152.635 126.993C152.561 126.945 152.145 126.658 152.064 126.6C151.519 126.171 151.007 125.693 150.523 125.19C150.333 125.003 150.162 124.81 149.988 124.6C150.21 124.858 149.665 124.181 149.604 124.097C149.565 124.043 149.53 123.985 149.494 123.933C152.887 123.075 156.269 121.669 158.987 119.58C159.313 119.332 159.593 119.061 159.854 118.755C161.67 118.451 163.501 118.416 165.236 118.867C165.533 119.838 166.155 120.683 167.103 121.131C174.574 124.655 182.651 125.277 190.754 125.548C192.711 128.408 195.681 130.617 198.721 132.171C202.413 134.048 212.809 127.951 209.443 128.853C205.851 129.817 201.124 128.009 197.793 125.223C198.186 124.997 198.541 124.697 198.841 124.349C203.097 125.465 213.866 117.803 210.481 118.587C206.589 119.486 202.391 120.051 198.56 118.6C198.531 118.58 198.502 118.58 198.473 118.568C197.741 117.961 196.793 117.591 195.768 117.562C187.304 117.329 178.44 117.507 171.03 114.015C169.86 113.47 168.551 113.408 167.454 113.863C165.02 113.083 162.424 112.993 159.858 113.312C158.597 112.028 156.356 111.435 154.853 112.589C150.52 115.917 145.238 117.104 139.705 116.959C139.344 116.946 138.986 116.92 138.628 116.901C138.596 116.888 138.573 116.888 138.544 116.888C138.486 116.881 138.403 116.868 138.277 116.849C137.603 116.755 136.932 116.601 136.278 116.433C135.955 116.352 135.646 116.246 135.326 116.14C135.32 116.14 135.314 116.14 135.307 116.14C135.268 116.117 135.214 116.094 135.146 116.065C134.852 115.936 134.582 115.788 134.301 115.633C134.172 115.566 133.692 115.224 133.563 115.156C133.44 115.053 133.321 114.94 133.208 114.834C133.721 115.308 132.953 114.344 132.908 114.273C132.46 113.479 132.109 112.631 131.699 111.816C130.864 110.142 129.771 108.675 128.633 107.202C128.384 106.866 128.146 106.528 127.907 106.189C127.878 106.141 127.269 105.019 127.591 105.773C127.349 105.222 127.117 104.728 126.853 104.193C127.246 104.98 126.814 103.922 126.785 103.803C126.762 103.739 126.656 103.158 126.634 103.097C126.611 102.816 126.588 102.536 126.572 102.255C126.527 101.43 126.579 100.598 126.646 99.7854C126.63 100.056 126.737 99.1147 126.743 99.0696C126.804 98.6923 126.862 98.3248 126.933 97.9507C127.062 97.2188 127.236 96.4868 127.346 95.7485C127.656 93.7848 127.952 91.8115 128.275 89.8446C128.584 87.9551 128.945 86.0785 129.374 84.2116C129.584 83.3023 129.829 82.3962 130.084 81.4869C130.213 81.0387 130.354 80.6002 130.5 80.1714C130.545 80.036 130.945 78.9526 130.922 78.9848C132.399 75.3767 134.898 72.3812 137.181 69.3793C133.988 85.2079 146.173 97.1317 145.97 96.7158C145.893 96.5481 145.806 96.3837 145.732 96.2192C145.725 96.2031 145.719 96.1966 145.719 96.1805C145.699 96.1644 145.699 96.1515 145.693 96.1322C145.332 95.2455 145.038 94.32 144.784 93.3946C144.519 92.437 144.319 91.46 144.148 90.4862C144.142 90.4572 144.142 90.4314 144.136 90.4121C144.103 90.1702 144.071 89.9381 144.042 89.6995C143.971 89.0901 143.907 88.4678 143.861 87.8487C143.694 85.7496 143.694 83.6376 143.787 81.5321C143.836 80.4745 143.907 79.4233 144.007 78.3657C144.013 78.298 144.023 78.2367 144.029 78.1658C144.036 78.0949 144.081 77.637 144.097 77.5306C144.165 76.9115 144.245 76.2989 144.335 75.6798C144.374 75.4218 144.41 75.1607 144.448 74.9027C145.474 78.2593 146.763 81.5418 148.292 84.7146C150.165 88.5935 152.267 92.4273 154.499 96.1096C156.791 99.8821 159.458 103.606 162.831 106.499C164.336 107.782 166.439 108.046 168.035 106.892C172.039 109.149 189.619 111.374 192.724 112.296C195.965 113.267 212.748 112.941 212.693 110.671C212.641 108.517 210.758 106.57 208.553 106.695C205.19 106.895 203.178 106.476 199.702 105.712C198.122 105.373 196.551 104.957 194.991 104.503C194.275 104.293 193.562 104.061 192.853 103.838C192.521 103.732 192.198 103.626 191.863 103.51C191.753 103.471 191.067 103.197 190.989 103.177C190.315 102.858 189.664 102.494 189.029 102.104C188.677 101.881 188.329 101.639 187.991 101.398C188.639 101.862 187.568 101.024 187.555 101.011C186.907 100.469 186.311 99.8692 185.73 99.2663C185.443 98.9632 185.166 98.6472 184.886 98.328C184.721 98.1313 184.553 97.9282 184.389 97.7218C184.344 97.667 184.283 97.5831 184.208 97.4896C182.306 94.9649 180.791 92.1662 179.398 89.3287C181.087 90.0671 182.851 90.6442 184.66 91.2311C188.007 92.3112 194.607 98.7439 195.784 98.0378C197.138 97.2317 191.679 88.1131 187.736 86.5847C184.479 85.3304 180.916 84.7404 178.166 82.4543C177.498 81.9029 176.686 81.6288 175.909 81.7159C175.209 80.094 174.522 78.485 173.816 76.8664C178.617 77.5241 190.689 81.2 191.46 79.8167C192.121 78.6204 177.856 71.7009 171.211 71.1721C170.837 70.4111 170.453 69.6341 170.044 68.857C169.389 67.5962 168.67 66.3419 167.896 65.1231C172.372 66.9256 186.517 64.5943 183.112 63.8237C176.86 62.4049 170.647 61.041 165.068 57.707C163.885 57.0041 162.763 57.3168 162.025 58.0617C160.603 56.7913 159.052 55.6821 157.356 54.7728C157.691 54.6374 157.994 54.4246 158.249 54.1634C164.678 53.4411 170.369 53.5346 176.405 55.1597C177.814 55.537 179.685 56.1432 180.587 56.5301C182.332 57.2685 183.583 58.1391 184.773 59.1515C187.542 61.5247 189.345 64.1042 191.209 67.2287C192.076 68.6796 192.859 70.1854 193.604 71.7041C193.988 72.4747 194.394 73.2325 194.765 74.0128C194.9 74.2998 195.033 74.5867 195.162 74.8834C195.11 74.7834 195.433 75.5476 195.442 75.5798C195.939 76.8277 196.322 78.1207 196.632 79.4201C196.713 79.7716 196.784 80.1295 196.858 80.4842C196.874 80.5906 196.887 80.6679 196.903 80.7163C196.913 80.7711 196.919 80.8324 196.925 80.9098C197.032 81.6643 197.093 82.4285 197.135 83.1926C197.361 86.7427 197.406 90.0542 198.854 93.3721C200.292 96.6835 211.006 99.0051 211.525 96.8641C212.045 94.7037 210.677 92.495 208.53 91.9598C208.275 91.8985 208.017 91.8308 207.763 91.7502C208.585 91.9985 207.547 91.5954 207.418 91.5309C207.372 91.4987 207.337 91.4761 207.295 91.4632C207.256 91.4245 207.214 91.3891 207.153 91.3375C207.079 91.2698 206.699 90.8377 206.663 90.8248C206.534 90.6249 206.418 90.4218 206.299 90.2186C206.266 90.1574 206.063 89.6898 206.009 89.5834C205.786 88.9514 205.625 88.3001 205.489 87.6391C205.477 87.5585 205.467 87.4972 205.451 87.436C205.406 87.0619 205.377 86.6847 205.348 86.2945C205.283 85.4691 205.302 84.6372 205.28 83.8117C205.228 82.0609 204.993 80.3391 204.716 78.6076C204.209 75.5476 203.042 72.6553 201.736 69.8662C200.192 66.558 198.444 63.2884 196.387 60.264C194.101 56.9073 191.415 53.9022 188.11 51.5291C185.069 49.3365 181.487 48.1112 177.892 47.1471C172.575 45.7187 167.074 45.3995 161.605 45.738C162.021 45.4285 162.444 45.1319 162.882 44.8546C163.505 44.4451 164.162 44.0839 164.827 43.7421C164.891 43.7196 165.265 43.5519 165.423 43.4777C165.758 43.3488 166.097 43.2295 166.435 43.1166C167.058 42.9135 167.699 42.7619 168.341 42.6265C168.415 42.6104 168.725 42.5588 168.889 42.5362C169.109 42.504 169.334 42.4814 169.553 42.4685C170.966 42.3331 172.404 42.3814 173.826 42.4685C174.164 42.4911 174.506 42.5233 174.841 42.5523C174.932 42.5588 175.003 42.5685 175.051 42.5685C175.093 42.5749 175.135 42.5813 175.187 42.5813C175.906 42.6652 176.618 42.7651 177.334 42.8619C178.788 43.0618 180.275 43.2165 181.713 43.5261C182.745 43.7453 183.763 44.071 184.747 44.4322C184.763 44.4322 184.773 44.4418 184.795 44.4483C185.056 44.5547 185.321 44.674 185.588 44.7901C186.211 45.0674 186.833 45.3737 187.439 45.6864C188.523 46.2539 189.587 46.8988 190.618 47.563C191.144 47.9081 191.666 48.2724 192.186 48.6368C192.24 48.6755 192.282 48.7077 192.321 48.7335C192.327 48.7399 192.337 48.74 192.344 48.7496C192.682 49.014 193.021 49.2784 193.359 49.5493C195.213 51.0551 196.929 52.7253 198.515 54.5181C198.789 54.8212 199.05 55.1371 199.308 55.4564C199.389 55.5595 199.631 55.8659 199.692 55.9368C199.879 56.1948 200.069 56.4527 200.25 56.7171C200.911 57.6522 201.517 58.6388 202.072 59.6416C202.32 60.0898 202.555 60.5412 202.774 61.0023C202.803 61.07 202.903 61.2829 202.961 61.428C203.039 61.6085 203.116 61.7955 203.187 61.9858C203.564 62.9918 203.858 64.03 204.077 65.0715C204.084 65.1102 204.09 65.1392 204.09 65.1683C204.106 65.2682 204.164 65.6229 204.184 65.7454C204.242 66.3033 204.261 66.8707 204.261 67.4382C204.261 67.7897 204.248 68.154 204.216 68.5184C204.232 68.125 204.042 69.4793 203.984 69.7534C203.497 71.9073 204.796 74.1256 206.969 74.6577C206.992 74.6577 207.015 74.6577 207.037 74.6641C207.076 75.0414 207.118 75.4122 207.15 75.7926C207.134 75.8088 207.118 75.8152 207.105 75.8313C205.618 77.3597 205.522 80.1004 207.166 81.5837C208.159 82.4672 209.081 83.428 209.952 84.4244C210.329 84.8468 210.69 85.2853 211.048 85.7238C211.077 85.7689 211.529 86.3429 211.613 86.459C211.871 86.804 212.125 87.1619 212.374 87.5101C213.344 88.8934 214.24 90.3282 215.079 91.7953C215.479 92.4983 215.856 93.2076 216.217 93.9363C216.427 94.3458 216.626 94.7618 216.82 95.1842C216.92 95.3873 217.013 95.6001 217.11 95.8097C217.765 97.3671 218.3 98.9761 218.722 100.621C218.88 101.227 219 101.862 219.116 102.478C219.09 102.449 219.203 103.248 219.219 103.394C219.258 103.803 219.274 104.219 219.287 104.641C219.293 104.944 219.293 105.248 219.287 105.554C219.287 105.689 219.232 106.273 219.232 106.412C219.132 107.044 218.99 107.672 218.816 108.285C218.784 108.385 218.709 108.598 218.664 108.733C218.561 108.968 218.445 109.194 218.332 109.413C218.158 109.762 217.955 110.087 217.742 110.413C217.655 110.516 217.568 110.626 217.471 110.732C216.04 112.412 215.872 114.853 217.533 116.475C219.003 117.919 221.731 118.094 223.185 116.501C225.987 119.864 238.562 119.161 235.205 118.216C231.546 117.187 228.447 114.911 226.348 111.738C226.284 111.654 226.232 111.577 226.174 111.503C228.221 106.038 227.315 99.7725 225.155 94.2136C224.333 92.1113 223.369 90.0123 222.269 87.9873C224.062 87.8358 225.871 87.7455 227.647 87.9422C228.934 96.3095 234.896 103.78 240.49 109.775C242.87 112.332 246.636 108.446 244.266 105.905C241.645 103.084 239.236 100.098 237.153 96.8609C235.841 94.8295 234.535 92.5595 233.716 90.1993C234.283 90.5636 234.848 90.9506 235.402 91.3472C237.482 92.8465 239.5 94.4587 241.909 95.4099C244.695 96.5126 247.574 96.6352 250.402 95.584C251.782 95.0681 252.685 93.7332 252.256 92.2371C251.869 90.8957 250.296 89.8639 248.916 90.3766C247.552 90.8828 246.323 90.9892 245.101 90.7377C248.319 89.822 251.186 88.0293 253.42 85.3627C256.438 81.7513 254.794 68.0122 253.965 71.4171C252.269 78.356 248.864 85.569 240.832 86.0108C239.865 86.072 239.171 86.5235 238.756 87.1587C237.927 86.546 237.105 85.9334 236.247 85.3659C231.478 82.2221 225.89 82.2092 220.412 82.7154C219.961 82.7638 219.577 82.8928 219.248 83.0862C217.552 80.6615 215.637 78.398 213.528 76.4117C214.024 76.4504 214.566 76.3118 215.101 75.9506C217.039 74.6415 226.587 69.1794 223.175 68.4475C219.306 67.6156 215.517 69.1439 212.344 71.2849C212.257 71.3462 212.17 71.4139 212.09 71.4816C212.064 71.2849 212.045 71.0883 212.022 70.898C213.802 61.3183 208.191 52.132 201.259 45.6897C204.693 46.7118 208.246 47.3502 211.674 48.511C212.393 48.7528 213.583 49.3526 214.576 49.8814C215.591 50.4263 216.588 51.0228 217.552 51.6645C217.649 51.729 218.41 52.2771 218.477 52.3223C218.822 52.5867 219.164 52.8768 219.49 53.1541C220.27 53.8345 220.989 54.5697 221.682 55.3338C222.027 55.7047 222.343 56.098 222.669 56.4817C222.466 56.2496 223.278 57.2975 223.362 57.4103C224.075 58.3809 224.729 59.3772 225.397 60.3768C226.619 62.1954 227.722 64.0945 228.686 66.0614C229.405 67.5285 230.133 69.5341 230.636 71.6654C230.923 72.852 230.914 72.8907 231.02 74.2611C231.056 74.8028 231.069 75.3574 231.069 75.8991C231.056 76.1731 231.049 76.444 231.036 76.7245C231.036 76.7181 230.901 78.0562 230.991 77.3307C230.707 79.533 231.652 81.674 233.983 82.2382C235.95 82.7187 238.52 68.6184 236.469 63.7818C240.026 65.768 243.673 67.5221 247.765 68.2733C251.173 68.8989 252.475 63.6367 249.041 63.0015C248.113 62.8338 247.216 62.6081 246.343 62.3372C247.345 62.089 248.322 61.7665 249.264 61.4215C252.143 60.3639 255.806 50.1716 253.462 52.764C252.182 54.1763 250.157 55.2661 248.122 56.0819C246.9 56.5656 245.643 56.946 244.363 57.2233C243.795 57.3459 243.441 57.3846 242.828 57.4136C242.58 57.4297 242.335 57.4232 242.08 57.4136C242.348 57.4232 241.709 57.362 241.664 57.3555C240.242 57.0557 239.181 57.8166 238.694 58.8355C236.711 57.707 234.751 56.5075 232.752 55.3887C232.355 55.1694 231.965 55.0533 231.588 55.034C230.578 53.5604 229.505 52.132 228.399 50.7552C225.249 46.8053 220.938 43.7744 216.372 41.7043C211.303 39.4053 205.044 39.0184 200.421 36.7903C198.428 35.8294 196.032 36.3518 194.91 38.3703C194.572 38.9797 194.423 39.6923 194.43 40.3952C192.718 39.2925 190.931 38.2961 189.077 37.4642C190.738 36.0842 192.321 34.6042 194.294 33.7046C195.52 33.1468 197.022 33.2661 198.325 33.3209C199.963 33.3886 205.367 31.0283 204.977 29.6966C204.548 28.1941 198.837 27.92 197.457 27.8781C195.807 27.8233 194.127 28.0135 192.563 28.5971C189.122 29.8804 186.875 32.8017 183.799 34.6622C183.415 34.8944 183.119 35.1749 182.919 35.478C181.368 35.1588 179.762 34.9331 178.153 34.759C179.73 33.495 181.274 32.1956 182.851 30.938C183.738 30.2287 184.944 29.6838 185.643 29.5773C187.214 29.3452 188.816 29.3871 190.393 29.242C193.843 28.9196 183.773 23.9669 180.813 25.7726C178.959 26.914 177.311 28.4907 175.638 29.8708C173.81 31.383 171.94 32.8114 169.918 34.0593C169.776 34.1495 169.657 34.2495 169.534 34.3462C168.177 34.4462 166.822 34.6429 165.465 34.9524C161.289 35.9133 157.823 38.28 154.637 41.0111C155.05 40.1534 155.473 39.3183 155.947 38.5025C157.491 35.8327 159.013 33.9045 161.154 31.6119C162.26 30.4415 163.437 29.3291 164.649 28.265C165.207 27.7717 165.784 27.3009 166.352 26.8269C166.39 26.7979 166.442 26.7592 166.503 26.7076C166.816 26.4722 167.135 26.2498 167.454 26.0337C168.444 25.3534 169.473 24.7569 170.527 24.199C171.965 23.4349 172.275 23.322 173.697 22.7835C175.009 22.2967 176.351 21.9033 177.702 21.5583C178.388 21.3841 179.075 21.2423 179.768 21.1036C180.671 20.9295 180.333 20.9843 181.248 20.8715C183.821 20.5361 186.427 20.5103 189.003 20.7264C189.068 20.736 189.19 20.7522 189.38 20.7747C189.79 20.8295 190.19 20.894 190.596 20.9714C191.257 21.0843 191.921 21.2294 192.579 21.3874C193.224 21.5454 193.865 21.7421 194.507 21.9484C194.665 22.0032 194.833 22.0613 194.994 22.1225C194.846 22.0774 195.661 22.3805 195.707 22.4031C197.245 23.0608 198.944 23.0092 200.189 22.0419C201.349 22.3063 202.504 22.6513 203.6 23.0995C204.406 23.4252 205.293 23.8347 206.099 24.3151C206.15 25.6855 206.944 26.9624 208.182 27.7878C212.087 30.406 216.24 32.618 220.086 35.3103C220.289 35.4619 220.493 35.607 220.696 35.7488C220.734 35.7811 220.78 35.8166 220.838 35.8553C221.366 36.2615 221.869 36.6871 222.379 37.1192C223.275 37.8802 224.11 38.7056 224.91 39.5762C224.984 39.6665 225.642 40.4758 225.61 40.4178C225.955 40.8789 226.267 41.3625 226.571 41.8526C226.841 42.2912 227.083 42.7522 227.312 43.223C227.39 43.381 227.441 43.4874 227.467 43.539C227.583 43.8518 227.696 44.1581 227.805 44.4708C228.518 46.5635 230.614 47.8952 232.813 47.2599C234.857 46.6699 236.305 44.3257 235.586 42.2299C235.541 42.0848 235.489 41.959 235.438 41.8204C240.403 43.3036 253.072 45.1415 251.843 44.3322C249.847 43.0005 247.803 41.714 245.707 40.5435C247.503 39.3021 250.054 32.4825 248.867 31.8312C247.468 31.0541 246.046 31.6797 245.195 32.8824C244.443 33.9561 243.686 35.8166 242.386 36.2551C241.403 36.5904 240.851 37.274 240.635 38.064C237.891 36.9096 235.035 36.0519 232.052 35.6521C227.032 29.0969 218.996 25.3018 212.099 20.678C211.861 20.5136 211.6 20.391 211.332 20.3104C216.375 21.1197 230.949 19.4624 227.58 18.5563C220.731 16.712 213.976 14.8934 206.957 14.3356C208.794 14.1454 210.648 14.0099 212.506 13.9584C220.409 13.7552 228.834 15.448 236.002 18.8111C239.868 20.6329 242.86 23.1963 245.733 26.311C248.393 29.1936 251.031 32.0827 253.488 35.1427C255.809 38.0317 257.918 41.1981 259.466 44.5869C260.798 47.5211 261.362 50.8261 261.71 54.0086C262.045 57.0944 262.19 60.2027 262.516 63.2852C262.893 66.8417 263.483 70.4015 263.367 73.9838C263.261 77.4661 268.178 65.826 267.794 61.8342ZM150.02 60.5799C150.433 60.6767 150.839 60.8056 151.245 60.9249C151.271 60.9314 152.019 61.2151 152.032 61.2055C152.693 61.486 153.332 61.8181 153.96 62.1663C154.305 62.363 154.641 62.5726 154.976 62.7854C155.16 62.9047 155.337 63.0337 155.518 63.1627C155.566 63.2014 155.614 63.2368 155.692 63.2917C156.395 63.8495 157.043 64.4557 157.665 65.1005C157.975 73.6065 159.903 82.0738 162.228 90.2283C163.179 93.5946 168.377 92.0984 167.419 88.7322C166.142 84.2535 164.985 79.6909 164.175 75.0897C166.516 79.807 168.241 84.5082 170.566 89.5479C173.271 95.4163 176.276 101.575 181.052 106.07C176.731 104.883 172.642 103.552 168.857 101.033C168.754 100.911 168.638 100.791 168.512 100.675C162.731 95.742 159.21 88.2904 155.672 81.3644C153.999 78.0981 152.745 74.7028 151.706 70.8916C150.713 67.2835 150.201 64.1848 150.014 60.5799H150.02ZM200.137 15.548C200.008 15.4674 199.866 15.3868 199.721 15.3223C199.921 15.2836 200.121 15.2546 200.324 15.2255C200.25 15.3255 200.185 15.4319 200.137 15.548ZM210.239 20.1266C210.065 20.1266 209.904 20.1363 209.73 20.1589C209.675 20.1105 209.607 20.075 209.546 20.0363C209.781 20.0589 210.007 20.0912 210.239 20.1266Z" fill="#FCF2E7"/>
<path d="M11.9223 144.111C15.6046 142.125 19.0579 139.971 22.5531 137.679C32.2038 131.352 41.3353 137.633 48.7546 143.844C54.3941 148.561 60.9847 151.327 68.3589 150.895C82.8204 150.044 86.5284 129.456 100.98 130.656C107.822 131.223 107.768 120.576 100.98 120.015C82.8075 118.506 75.2172 146.297 58.4762 137.856C49.5188 133.339 44.9692 125.094 33.8901 124.468C22.6886 123.836 15.9915 129.83 6.55044 134.925C0.514369 138.182 5.88622 147.368 11.9223 144.111Z" fill="#FCF2E7"/>
<path d="M8.0207 116.494C11.703 114.508 15.1595 112.354 18.6548 110.062C28.3086 103.732 37.4337 110.016 44.853 116.227C50.4925 120.944 57.0832 123.71 64.4574 123.278C78.9188 122.427 82.6268 101.839 97.0818 103.036C103.924 103.606 103.869 92.9594 97.0818 92.3983C78.9091 90.8893 71.3157 118.677 54.5746 110.239C45.6172 105.722 41.0708 97.4735 29.9918 96.8512C18.7902 96.2192 12.0899 102.217 2.64885 107.308C-3.39367 110.565 1.97818 119.754 8.0207 116.494Z" fill="#FCF2E7"/>
<path d="M8.02076 87.6908C11.703 85.7046 15.1596 83.5506 18.6548 81.2581C28.3087 74.9286 37.4337 81.2097 44.8531 87.4199C50.4925 92.1405 57.0832 94.907 64.4574 94.4717C78.9188 93.6204 82.6269 73.0327 97.0819 74.2289C103.924 74.7964 103.869 64.1527 97.0819 63.5884C78.9092 62.0826 71.3157 89.8705 54.5746 81.429C45.6173 76.9116 41.0708 68.6636 29.9918 68.0413C18.7902 67.4125 12.09 73.4099 2.64891 78.5045C-3.39361 81.7611 1.98146 90.9474 8.02076 87.6908Z" fill="#FCF2E7"/>
</svg>
