<svg width="180" height="160" viewBox="0 0 180 160" fill="none" xmlns="http://www.w3.org/2000/svg">
<path d="M9.69477 88.7219C5.26855 80.3974 3.05544 76.2352 4.26649 72.274C5.47753 68.3129 9.63979 66.0998 17.9643 61.6736L93.8651 21.3164C98.4915 18.8565 100.805 17.6266 103.312 17.6334C105.82 17.6401 108.126 18.8826 112.739 21.3674L144.482 38.4664C150.172 41.5314 153.017 43.0639 154.439 45.7373C155.86 48.4106 155.54 51.6262 154.899 58.0573L151.324 93.9351C150.805 99.149 150.545 101.756 149.148 103.839C147.752 105.921 145.439 107.151 140.812 109.611L64.9114 149.968C56.5869 154.395 52.4247 156.608 48.4635 155.397C44.5024 154.186 42.2893 150.023 37.8631 141.699L9.69477 88.7219Z" stroke="#FEFEFF" stroke-width="4"/>
<circle cx="112.074" cy="68.2631" r="8.33333" transform="rotate(-28 112.074 68.2631)" stroke="#FEFEFF" stroke-width="4"/>
</svg>
