<svg width="11" height="8" viewBox="0 0 11 8" fill="none" xmlns="http://www.w3.org/2000/svg">
<path d="M1 3C1 2.05719 1 1.58579 1.29289 1.29289C1.58579 1 2.05719 1 3 1H6.92963C7.4536 1 7.71558 1 7.93667 1.11833C8.15777 1.23665 8.30309 1.45463 8.59373 1.8906L9.2604 2.8906C9.6189 3.42835 9.79815 3.69722 9.79815 4C9.79815 4.30278 9.6189 4.57165 9.2604 5.1094L8.59373 6.1094C8.30309 6.54537 8.15777 6.76335 7.93667 6.88167C7.71558 7 7.4536 7 6.92963 7H3C2.05719 7 1.58579 7 1.29289 6.70711C1 6.41421 1 5.94281 1 5V3Z" stroke="#8A8A6F"/>
<circle cx="7" cy="4" r="0.5" fill="#8A8A6F" stroke="#8A8A6F"/>
</svg>
